<svg width="70" height="70" viewBox="0 0 70 70" fill="none" xmlns="http://www.w3.org/2000/svg">
<path d="M23.3333 61.25H46.6667M35 49.5833V61.25M19.8333 49.5833H50.1667C55.0671 49.5833 57.5174 49.5833 59.3891 48.6296C61.0355 47.7907 62.3741 46.4522 63.213 44.8058C64.1667 42.934 64.1667 40.4838 64.1667 35.5833V22.75C64.1667 17.8495 64.1667 15.3993 63.213 13.5276C62.3741 11.8812 61.0355 10.5426 59.3891 9.70369C57.5174 8.75 55.0671 8.75 50.1667 8.75H19.8333C14.9329 8.75 12.4827 8.75 10.6109 9.70369C8.96451 10.5426 7.62593 11.8812 6.78704 13.5276C5.83334 15.3993 5.83334 17.8495 5.83334 22.75V35.5833C5.83334 40.4838 5.83334 42.934 6.78704 44.8058C7.62593 46.4522 8.96451 47.7907 10.6109 48.6296C12.4827 49.5833 14.9329 49.5833 19.8333 49.5833Z" stroke="#111111" stroke-linecap="round" stroke-linejoin="round"/>
</svg>
