<svg width="70" height="70" viewBox="0 0 70 70" fill="none" xmlns="http://www.w3.org/2000/svg">
<path d="M29.1666 43.75L20.1971 52.8317C18.946 54.0984 18.3205 54.7318 17.7828 54.7765C17.3163 54.8152 16.8595 54.6277 16.5549 54.2723C16.2037 53.8627 16.2037 52.9725 16.2037 51.192V43.75C14.6985 43.75 13.9459 43.75 13.3152 43.6577C9.49006 43.0974 6.48599 40.0933 5.9257 36.2682C5.83331 35.6375 5.83331 34.8849 5.83331 33.3797V19.8334C5.83331 14.9329 5.83331 12.4827 6.78701 10.611C7.6259 8.96454 8.96448 7.62596 10.6109 6.78707C12.4826 5.83337 14.9329 5.83337 19.8333 5.83337H41.4166C46.3171 5.83337 48.7673 5.83337 50.6391 6.78707C52.2855 7.62596 53.6241 8.96454 54.463 10.611C55.4166 12.4827 55.4166 14.9329 55.4166 19.8334V32.0834M55.4166 64.1667L49.0688 59.7534C48.1765 59.1331 47.7303 58.8229 47.2447 58.603C46.8138 58.4078 46.3607 58.2657 45.8954 58.18C45.3712 58.0834 44.8278 58.0834 43.741 58.0834H38.5C35.233 58.0834 33.5995 58.0834 32.3517 57.4476C31.2541 56.8883 30.3617 55.9959 29.8024 54.8983C29.1666 53.6505 29.1666 52.017 29.1666 48.75V41.4167C29.1666 38.1497 29.1666 36.5162 29.8024 35.2684C30.3617 34.1708 31.2541 33.2784 32.3517 32.7192C33.5995 32.0834 35.233 32.0834 38.5 32.0834H54.8333C58.1003 32.0834 59.7338 32.0834 60.9816 32.7192C62.0792 33.2784 62.9716 34.1708 63.5308 35.2684C64.1666 36.5162 64.1666 38.1497 64.1666 41.4167V49.3334C64.1666 52.0514 64.1666 53.4104 63.7226 54.4824C63.1306 55.9117 61.995 57.0473 60.5656 57.6393C59.4936 58.0834 58.1346 58.0834 55.4166 58.0834V64.1667Z" stroke="#111111" stroke-linecap="round" stroke-linejoin="round"/>
</svg>
