<svg width="70" height="70" viewBox="0 0 70 70" fill="none" xmlns="http://www.w3.org/2000/svg">
<path d="M35 51.0417H35.0292M23.9167 64.1667H46.0833C49.3503 64.1667 50.9838 64.1667 52.2316 63.5309C53.3292 62.9716 54.2216 62.0793 54.7809 60.9817C55.4167 59.7338 55.4167 58.1003 55.4167 54.8334V15.1667C55.4167 11.8997 55.4167 10.2662 54.7809 9.01843C54.2216 7.92082 53.3292 7.02843 52.2316 6.46917C50.9838 5.83337 49.3503 5.83337 46.0833 5.83337H23.9167C20.6497 5.83337 19.0162 5.83337 17.7684 6.46917C16.6708 7.02843 15.7784 7.92082 15.2191 9.01843C14.5833 10.2662 14.5833 11.8997 14.5833 15.1667V54.8334C14.5833 58.1003 14.5833 59.7338 15.2191 60.9817C15.7784 62.0793 16.6708 62.9716 17.7684 63.5309C19.0162 64.1667 20.6497 64.1667 23.9167 64.1667ZM36.4583 51.0417C36.4583 51.8471 35.8054 52.5 35 52.5C34.1946 52.5 33.5417 51.8471 33.5417 51.0417C33.5417 50.2363 34.1946 49.5834 35 49.5834C35.8054 49.5834 36.4583 50.2363 36.4583 51.0417Z" stroke="#111111" stroke-linecap="round" stroke-linejoin="round"/>
</svg>
