<svg width="70" height="70" viewBox="0 0 70 70" fill="none" xmlns="http://www.w3.org/2000/svg">
<path d="M26.25 33.5416L32.0833 39.3749L45.2083 26.2499M58.3333 34.9999C58.3333 49.3162 42.7176 59.7286 37.0358 63.0433C36.3901 63.42 36.0672 63.6084 35.6116 63.7061C35.258 63.782 34.7421 63.782 34.3884 63.7061C33.9328 63.6084 33.6099 63.42 32.9642 63.0433C27.2824 59.7286 11.6667 49.3162 11.6667 34.9999V21.0513C11.6667 18.7194 11.6667 17.5534 12.0481 16.5512C12.385 15.6658 12.9325 14.8758 13.6432 14.2494C14.4477 13.5404 15.5394 13.131 17.7229 12.3122L33.3614 6.44775C33.9678 6.22036 34.271 6.10667 34.5829 6.0616C34.8595 6.02162 35.1405 6.02162 35.4171 6.0616C35.729 6.10667 36.0322 6.22036 36.6386 6.44775L52.2772 12.3122C54.4606 13.131 55.5523 13.5404 56.3568 14.2494C57.0676 14.8758 57.615 15.6658 57.952 16.5512C58.3333 17.5534 58.3333 18.7194 58.3333 21.0513V34.9999Z" stroke="#111111" stroke-linecap="round" stroke-linejoin="round"/>
</svg>
