<svg width="70" height="70" viewBox="0 0 70 70" fill="none" xmlns="http://www.w3.org/2000/svg">
<path d="M24.688 24.6881L14.376 14.3762M14.376 55.6241L24.6881 45.312M45.312 45.312L55.6239 55.6239M55.6239 14.376L45.3119 24.688M64.1667 35C64.1667 51.1083 51.1083 64.1667 35 64.1667C18.8917 64.1667 5.83333 51.1083 5.83333 35C5.83333 18.8917 18.8917 5.83337 35 5.83337C51.1083 5.83337 64.1667 18.8917 64.1667 35ZM49.5833 35C49.5833 43.0542 43.0541 49.5834 35 49.5834C26.9458 49.5834 20.4167 43.0542 20.4167 35C20.4167 26.9459 26.9458 20.4167 35 20.4167C43.0541 20.4167 49.5833 26.9459 49.5833 35Z" stroke="#111111" stroke-linecap="round" stroke-linejoin="round"/>
</svg>
